<svg width="577" height="566" viewBox="0 0 577 566" fill="none" xmlns="http://www.w3.org/2000/svg">
<path d="M45.6474 420.5L288.5 7.8859L531.353 420.5H45.6474Z" fill="white" stroke="#52206B" stroke-width="8"/>
<path d="M288.5 6.5L288.5 424" stroke="#121212" stroke-width="7" stroke-dasharray="10 10"/>
<path d="M101.208 226.2C101.784 222.904 103.032 219.96 104.952 217.368C106.904 214.744 109.288 212.712 112.104 211.272C114.952 209.8 117.976 209.064 121.176 209.064C124.92 209.064 128.04 210.024 130.536 211.944C133.032 213.864 134.536 216.52 135.048 219.912H127.32C126.808 218.376 125.928 217.224 124.68 216.456C123.432 215.656 121.896 215.256 120.072 215.256C118.12 215.256 116.296 215.704 114.6 216.6C112.936 217.496 111.528 218.776 110.376 220.44C109.256 222.104 108.504 224.024 108.12 226.2C107.96 227.224 107.88 228.072 107.88 228.744C107.88 231.336 108.616 233.384 110.088 234.888C111.592 236.392 113.624 237.144 116.184 237.144C118.008 237.144 119.688 236.744 121.224 235.944C122.76 235.144 124.056 233.976 125.112 232.44H132.84C131.112 235.864 128.664 238.536 125.496 240.456C122.36 242.344 118.92 243.288 115.176 243.288C112.36 243.288 109.864 242.728 107.688 241.608C105.544 240.456 103.88 238.84 102.696 236.76C101.512 234.68 100.92 232.296 100.92 229.608C100.92 228.488 101.016 227.352 101.208 226.2Z" fill="#121212"/>
<path d="M456.952 175.136C456.632 177.088 455.832 178.72 454.552 180.032C453.304 181.312 451.768 182.24 449.944 182.816C451.48 183.136 452.712 183.904 453.64 185.12C454.6 186.336 455.08 187.776 455.08 189.44C455.08 189.888 455.032 190.384 454.936 190.928C454.488 193.648 453.112 195.84 450.808 197.504C448.536 199.168 445.688 200 442.264 200H427.816L433.768 166.496H447.592C450.632 166.496 452.968 167.136 454.6 168.416C456.264 169.696 457.096 171.408 457.096 173.552C457.096 174.064 457.048 174.592 456.952 175.136ZM449.944 176.144C449.976 175.952 449.992 175.664 449.992 175.28C449.992 174.16 449.624 173.296 448.888 172.688C448.152 172.08 447.08 171.776 445.672 171.776H439.576L438.04 180.416H444.184C445.752 180.416 447.048 180.048 448.072 179.312C449.096 178.544 449.72 177.488 449.944 176.144ZM448.264 190.112C448.328 189.664 448.36 189.344 448.36 189.152C448.36 188 447.944 187.104 447.112 186.464C446.312 185.792 445.192 185.456 443.752 185.456H437.128L435.544 194.672H442.312C443.944 194.672 445.288 194.272 446.344 193.472C447.4 192.672 448.04 191.552 448.264 190.112Z" fill="#121212"/>
<path d="M290.512 470.616H277.12L273.808 477H266.752L284.752 443.448H292.576L298.672 477H291.568L290.512 470.616ZM289.648 465.384L287.248 451.176L279.856 465.384H289.648Z" fill="#121212"/>
<path d="M310.128 274.792C310.096 274.984 310.08 275.24 310.08 275.56C310.08 276.2 310.256 276.664 310.608 276.952C310.992 277.208 311.616 277.336 312.48 277.336H315.648L314.64 283H310.368C305.568 283 303.168 281 303.168 277C303.168 276.232 303.232 275.48 303.36 274.744L305.616 261.928H302.448L303.408 256.408H306.624L307.776 249.832H314.544L313.392 256.408H319.296L318.336 261.928H312.384L310.128 274.792Z" fill="#121212"/>
<path d="M156.488 388.608C156.968 385.92 157.912 383.536 159.32 381.456C160.76 379.376 162.504 377.776 164.552 376.656C166.6 375.536 168.76 374.976 171.032 374.976C173.016 374.976 174.68 375.376 176.024 376.176C177.4 376.976 178.408 377.984 179.048 379.2L179.72 375.408H186.488L181.784 402H175.016L175.736 398.112C174.68 399.36 173.304 400.4 171.608 401.232C169.944 402.032 168.12 402.432 166.136 402.432C164.184 402.432 162.456 402 160.952 401.136C159.448 400.24 158.28 398.992 157.448 397.392C156.616 395.76 156.2 393.872 156.2 391.728C156.2 390.736 156.296 389.696 156.488 388.608ZM177.368 388.704C177.496 387.872 177.56 387.264 177.56 386.88C177.56 384.992 177 383.52 175.88 382.464C174.792 381.408 173.416 380.88 171.752 380.88C170.504 380.88 169.288 381.184 168.104 381.792C166.952 382.4 165.944 383.296 165.08 384.48C164.216 385.632 163.64 387.008 163.352 388.608C163.256 389.216 163.208 389.792 163.208 390.336C163.208 392.256 163.752 393.776 164.84 394.896C165.928 395.984 167.304 396.528 168.968 396.528C170.216 396.528 171.432 396.224 172.616 395.616C173.8 394.976 174.808 394.064 175.64 392.88C176.504 391.696 177.08 390.304 177.368 388.704Z" fill="#121212"/>
</svg>
